<?xml version="1.0" standalone="no"?><!DOCTYPE svg PUBLIC "-//W3C//DTD SVG 1.1//EN" "http://www.w3.org/Graphics/SVG/1.1/DTD/svg11.dtd"><svg t="1772614283099" class="icon" viewBox="0 0 1024 1024" version="1.1" xmlns="http://www.w3.org/2000/svg" p-id="6184" xmlns:xlink="http://www.w3.org/1999/xlink" width="200" height="200"><path d="M928 254.293333c-30.592 13.226667-63.893333 22.698667-98.197333 26.410667a170.112 170.112 0 0 0 75.008-93.994667 336.64 336.64 0 0 1-108.202667 41.173334A170.112 170.112 0 0 0 672 174.016c-94.506667 0-170.496 76.586667-170.496 170.602667 0 13.205333 1.6 26.410667 4.202667 39.104A484.586667 484.586667 0 0 1 154.090667 205.205333a169.322667 169.322667 0 0 0-23.189334 86.101334 170.624 170.624 0 0 0 75.989334 142.08 171.989333 171.989333 0 0 1-77.098667-21.696v2.112a170.56 170.56 0 0 0 136.704 167.402666 180.608 180.608 0 0 1-44.906667 5.802667c-11.093333 0-21.589333-1.109333-32.192-2.602667a170.816 170.816 0 0 0 159.402667 118.293334 341.76 341.76 0 0 1-211.690667 72.896c-14.293333 0-27.52-0.490667-41.216-2.090667a482.858667 482.858667 0 0 0 261.909334 76.501333c313.6 0 485.205333-259.797333 485.205333-485.312 0-7.402667 0-14.784-0.512-22.186666A367.274667 367.274667 0 0 0 928 254.293333z" fill="#000000" p-id="6185"></path></svg>